<?xml version="1.0" standalone="no"?>
<!DOCTYPE svg PUBLIC "-//W3C//DTD SVG 20010904//EN"
 "http://www.w3.org/TR/2001/REC-SVG-20010904/DTD/svg10.dtd">
<svg version="1.0" xmlns="http://www.w3.org/2000/svg"
 width="2048.000000pt" height="2048.000000pt" viewBox="0 0 2048.000000 2048.000000"
 preserveAspectRatio="xMidYMid meet">
<metadata>
Created by potrace 1.14, written by Peter Selinger 2001-2017
</metadata>
<g transform="translate(0.000000,2048.000000) scale(0.100000,-0.100000)"
fill="#000000" stroke="none">
<path d="M10495 19703 c-293 -17 -429 -27 -595 -44 -2242 -224 -4402 -1137
-6090 -2573 -486 -413 -835 -755 -1211 -1186 -472 -542 -969 -1260 -1294
-1870 -49 -91 -109 -202 -134 -248 -157 -282 -373 -778 -530 -1219 -182 -513
-333 -1095 -426 -1651 -19 -112 -37 -207 -40 -212 -8 -13 -42 -282 -59 -477
-28 -299 -36 -498 -36 -857 0 -552 30 -953 110 -1452 16 -100 31 -206 34 -235
8 -99 96 -487 172 -759 210 -750 526 -1498 908 -2144 25 -43 46 -83 46 -90 0
-6 7 -21 15 -32 8 -12 11 -24 8 -28 -3 -3 -2 -6 4 -6 6 0 29 -31 52 -70 59
-99 228 -353 329 -495 539 -754 1195 -1419 1962 -1991 159 -118 334 -241 457
-320 48 -31 93 -63 100 -69 7 -7 83 -55 170 -108 565 -338 1161 -619 1768
-830 867 -303 1699 -469 2690 -539 233 -16 1014 -16 1245 0 1059 75 1986 264
2944 598 571 200 1264 514 1751 794 55 31 136 77 180 100 102 55 353 212 565
353 1015 678 1983 1598 2684 2552 33 44 64 85 71 90 37 31 297 414 452 665
416 674 797 1485 1033 2205 24 72 47 132 51 135 13 9 105 324 174 595 161 627
254 1233 284 1850 27 528 30 648 21 875 -35 885 -178 1693 -446 2510 -31 96
-58 184 -60 195 -1 11 -34 102 -72 202 -369 958 -888 1817 -1578 2615 -227
262 -349 392 -521 556 -561 532 -1125 954 -1788 1334 -241 138 -744 390 -985
492 -1097 467 -2193 719 -3410 786 -163 9 -872 11 -1005 3z m-3272 -5330 c-7
-2 -19 -2 -25 0 -7 3 -2 5 12 5 14 0 19 -2 13 -5z"/>
</g>
</svg>
